<svg xmlns="http://www.w3.org/2000/svg" xmlns:xlink="http://www.w3.org/1999/xlink" version="1.1" id="mlicon" x="0px" y="0px" width="1500px" height="831px" viewBox="0 0 1500 831" enable-background="new 0 0 1500 831" xml:space="preserve">
<style>
	.mlicon {
		fill:	#666;
	}
</style>
<path id="c" d="M1501.107 621.491c-10.756 35.312-29.963 92.12-43.793 118.2 c-21.512 4.606-86.049 19.959-141.366 19.959c-191.306 0-275.05-132.039-275.05-254.099c0-161.978 124.464-267.917 295.794-267.917 c62.232 0 114.5 16.9 136 20.727c6.146 43 10.8 74.5 15.4 115.15l-22.281 6.1 c-20.743-81.373-66.841-114.383-149.817-114.383c-128.305 0-196.684 108.241-196.684 224.9 c0 143.6 84.5 241.8 201.3 241.816c78.366 0 119.854-42.222 158.269-118.221L1501.107 621.491z" class="mlicon"/>
<path id="a" d="M1233.226 86.169c0 54.504-50.707 87.514-98.342 99.797l-7.683-19.959 c36.878-15.353 59.158-33.01 59.158-64.484c0-26.869-22.28-42.99-47.634-47.596c-5.378-0.768-9.988-6.142-9.988-15.354 c0-20.727 19.208-29.939 33.037-29.939C1194.043 8.6 1233.2 37.8 1233.2 86.169z" class="mlicon"/>
<path id="m" d="M730.518 830.039v-35.824c105-8.956 108.841-16.633 108.841-152.255l-5.122-522.016h-5.121 L516.676 821.083h-25.609L204.237 137.857h-2.561L182.469 502.5c-5.122 106.194-5.122 161.211-3.841 212.4 c2.561 61.4 32 70.4 117.8 79.326v35.824H-1.921v-35.824c75.549-7.677 99.878-23.03 108.842-76.768 c7.683-44.78 15.366-99.797 24.329-234.139l17.927-266.126C160.701 50.9 154.3 45.7 37.8 34.222V-1.603h210l291.951 641 L836.798-1.603h217.683v35.825C940.518 44.5 932.8 47 936.7 178.799L948.2 642 c3.842 135.6 7.7 143.3 119.1 152.255v35.824H730.518z" class="mlicon"/>
</svg>
