<svg xmlns="http://www.w3.org/2000/svg" viewBox="0 0 1500 831">
<style type="text/css">
path {
	fill: #666;
}
</style>
<path d="M1478.827 613.814c-38.415 75.999-79.902 118.221-158.269 118.2 c-116.781 0-201.294-98.262-201.294-241.816c0-116.686 68.379-224.927 196.684-224.927c82.977 0 129.1 33 149.8 114.4 l22.281-6.142c-4.61-40.686-9.22-72.161-15.366-115.15c-21.513-3.838-73.756-20.727-135.988-20.727 c-171.33 0-295.794 105.938-295.794 267.917c0 122.1 83.7 254.1 275.1 254.099c55.317 0 119.854-15.353 141.366-19.959 c13.83-26.101 33.037-82.908 43.793-118.221L1478.827 613.814z"/>
<path d="M1127.201 166.006l7.683 19.959c47.635-12.283 98.342-45.292 98.342-99.797 c0-48.363-39.183-77.535-71.451-77.535c-13.829 0-33.037 9.212-33.037 29.939c0 9.2 4.6 14.6 10 15.4 c25.354 4.6 47.6 20.7 47.6 47.596C1186.359 133 1164.1 150.7 1127.2 166.006z"/>
<path d="M948.2 641.96l-11.524-463.161c-3.842-131.783 3.842-134.342 117.805-144.578V-1.603H836.798 L539.725 639.401L247.774-1.603h-210v35.825c116.524 11.5 122.9 16.6 111.4 182.961L131.25 483.3 c-8.963 134.342-16.646 189.358-24.329 234.139c-8.963 53.737-33.293 69.091-108.842 76.768v35.824h298.354v-35.824 c-85.792-8.956-115.244-17.913-117.805-79.326c-1.28-51.178-1.28-106.194 3.841-212.389l19.208-364.643h2.561l286.829 683.2 h25.609l312.439-701.139h5.121l5.122 522.016c0 135.622-3.841 143.299-108.841 152.255v35.824h336.768v-35.824 C955.883 785.3 952 777.6 948.2 641.96z"/>
</svg>